<svg xmlns="http://www.w3.org/2000/svg" viewBox="0 0 598.92 122.05"><defs><style>.cls-1{fill:#0b5082;}.cls-2{fill:#e53537;}.cls-3{fill:#231f20;}</style></defs><g id="Layer_2" data-name="Layer 2"><g id="Layer_1-2" data-name="Layer 1"><path class="cls-1" d="M62.46,0C28,0,0,27.32,0,61s28,61,62.46,61,62.46-27.32,62.46-61S97,0,62.46,0m3.25,102.59c-28.09,0-50.86-22-50.86-49.2S37.62,4.2,65.71,4.2s50.86,22,50.86,49.19-22.77,49.2-50.86,49.2"/><path class="cls-1" d="M106.8,32.3c-7.59-10.69-30.41-7.51-51,7.1S24.76,74.51,32.35,85.19s30.42,7.51,51-7.09S114.4,43,106.8,32.3M36.12,67.83,50.21,53.54l3.53-.24q-7,7.29-14,14.57l-3.62,0m11.14.89L66.19,49.5l3.33-.16L50.87,68.75l-3.61,0m15,1.23-4.15,0L84.4,44c1.32,0,2.65.06,4,.09L62.26,70"/><path class="cls-2" d="M103.9,29.18c-6.25-8.79-27.65-4.29-47.82,10S24.63,72.28,30.87,81.07s27.65,4.29,47.81-10S110.14,38,103.9,29.18M39.74,67.87l-3.62,0L50.21,53.54l3.53-.24q-7,7.29-14,14.57m7.52.85L66.19,49.5l3.33-.16L50.87,68.75l-3.61,0m15,1.23-4.15,0L84.4,44c1.32,0,2.65.06,4,.09L62.26,70"/><path class="cls-1" d="M58.11,69.9l4.15,0L88.37,44.06l-4-.09L58.11,69.9"/><path class="cls-1" d="M66.19,49.5,47.26,68.71l3.61,0L69.52,49.34l-3.33.16"/><path class="cls-1" d="M50.21,53.54,36.13,67.83l3.61,0q7-7.29,14-14.57l-3.53.24"/><path class="cls-3" d="M141,55.37V21.52h9a27.76,27.76,0,0,1,6.58.48,7.48,7.48,0,0,1,4.08,3.35,12.27,12.27,0,0,1,1.6,6.6,12.55,12.55,0,0,1-1.38,6.16,8,8,0,0,1-3.47,3.48c-1.38.67-3.77,1-7.15,1h-3.67V55.37Zm5.59-28.13v9.63h3.1a13.54,13.54,0,0,0,4.24-.44,3.78,3.78,0,0,0,1.84-1.58,5.19,5.19,0,0,0,.72-2.81,5.21,5.21,0,0,0-.74-2.85,3.62,3.62,0,0,0-1.83-1.55,16.29,16.29,0,0,0-4.6-.4Z"/><path class="cls-3" d="M146.84,55.64H140.7V21.24H150a27.5,27.5,0,0,1,6.66.5,7.74,7.74,0,0,1,4.23,3.47A12.58,12.58,0,0,1,162.52,32a12.83,12.83,0,0,1-1.42,6.29,8.36,8.36,0,0,1-3.59,3.6c-1.43.7-3.81,1-7.27,1h-3.4Zm-5.59-.55h5V42.32h4c3.32,0,5.69-.32,7-1A7.89,7.89,0,0,0,160.62,38,12.32,12.32,0,0,0,162,32a12.16,12.16,0,0,0-1.56-6.46,7.23,7.23,0,0,0-3.93-3.23,27.81,27.81,0,0,0-6.5-.47h-8.73Zm8.42-17.94h-3.38V27h3a16.46,16.46,0,0,1,4.69.41A3.91,3.91,0,0,1,156,29a5.46,5.46,0,0,1,.78,3,5.51,5.51,0,0,1-.75,3,4.1,4.1,0,0,1-2,1.7,13.43,13.43,0,0,1-4.34.46m-2.83-.55h2.83a13.31,13.31,0,0,0,4.14-.42,3.57,3.57,0,0,0,1.71-1.48A4.92,4.92,0,0,0,156.2,32a4.94,4.94,0,0,0-.7-2.69,3.4,3.4,0,0,0-1.69-1.44,16.63,16.63,0,0,0-4.51-.38h-2.46Z"/><polygon class="cls-3" points="166.86 55.37 166.86 21.52 172.45 21.52 172.45 34.84 183.46 34.84 183.46 21.52 189.05 21.52 189.05 55.37 183.46 55.37 183.46 40.57 172.45 40.57 172.45 55.37 166.86 55.37"/><path class="cls-3" d="M189.32,55.64h-6.13V40.84H172.72v14.8h-6.13V21.24h6.13V34.57h10.47V21.24h6.13Zm-5.58-.55h5V21.79h-5V35.12H172.17V21.79h-5v33.3h5V40.29h11.57Z"/><rect class="cls-3" x="194.66" y="21.52" width="5.59" height="33.85"/><path class="cls-3" d="M200.52,55.64h-6.13V21.24h6.13Zm-5.58-.55h5V21.79h-5Z"/><polygon class="cls-3" points="205.68 55.37 205.68 21.52 211.13 21.52 222.49 44.12 222.49 21.52 227.7 21.52 227.7 55.37 222.07 55.37 210.89 33.3 210.89 55.37 205.68 55.37"/><path class="cls-3" d="M228,55.64H221.9l-10.73-21.2v21.2H205.4V21.24h5.9l.07.15L222.21,43V21.24H228Zm-5.74-.55h5.19V21.79h-4.67V45.28L211,21.79h-5v33.3h4.67v-23Z"/><polygon class="cls-3" points="239.85 55.37 239.85 27.24 231.61 27.24 231.61 21.52 253.66 21.52 253.66 27.24 245.44 27.24 245.44 55.37 239.85 55.37"/><path class="cls-3" d="M245.71,55.64h-6.14V27.52h-8.24V21.24h22.6v6.28h-8.22Zm-5.59-.55h5V27h8.22V21.79h-21.5V27h8.24Z"/><path class="cls-3" d="M257.31,55.37V21.52H269.1q4.53,0,6.47.91a7.19,7.19,0,0,1,3.19,3.16A11,11,0,0,1,280,31a10.07,10.07,0,0,1-1.9,6.4,8.49,8.49,0,0,1-5.42,3,13.71,13.71,0,0,1,3,2.83,39.08,39.08,0,0,1,3.21,5.5l3.37,6.61h-6.68L271.5,48a49.89,49.89,0,0,0-3-5,4.42,4.42,0,0,0-1.66-1.38,7.52,7.52,0,0,0-2.82-.38h-1.16V55.37Zm5.58-19.54h4.16a21.08,21.08,0,0,0,4.85-.33,3.21,3.21,0,0,0,1.69-1.35,5,5,0,0,0,.64-2.7,4.66,4.66,0,0,0-.64-2.6,3.28,3.28,0,0,0-1.76-1.35,21.92,21.92,0,0,0-4.55-.26h-4.39Z"/><path class="cls-3" d="M282.69,55.64H275.4l-4.14-7.51a48.78,48.78,0,0,0-2.95-5,4.07,4.07,0,0,0-1.55-1.3,7.36,7.36,0,0,0-2.71-.36h-.88V55.64H257V21.24h12.08a16.82,16.82,0,0,1,6.58.94A7.47,7.47,0,0,1,279,25.46,11.29,11.29,0,0,1,280.28,31a10.34,10.34,0,0,1-2,6.57,8.5,8.5,0,0,1-5,3,14.11,14.11,0,0,1,2.54,2.52,40.85,40.85,0,0,1,3.24,5.55Zm-7-.55h6.08l-3.17-6.2a41.7,41.7,0,0,0-3.18-5.47,13.93,13.93,0,0,0-2.93-2.77l-.53-.38.65-.11a8.2,8.2,0,0,0,5.24-2.95A9.81,9.81,0,0,0,279.73,31a10.78,10.78,0,0,0-1.21-5.25,6.89,6.89,0,0,0-3.07-3.05,16.19,16.19,0,0,0-6.34-.89H257.58v33.3h5V41h1.43a7.62,7.62,0,0,1,2.93.41,4.69,4.69,0,0,1,1.76,1.46,47.94,47.94,0,0,1,3,5Zm-8.67-19h-4.43V27h4.66a21.72,21.72,0,0,1,4.63.27,3.5,3.5,0,0,1,1.9,1.46,4.94,4.94,0,0,1,.7,2.75,5.34,5.34,0,0,1-.69,2.85A3.41,3.41,0,0,1,272,35.76a20.81,20.81,0,0,1-4.93.35m-3.88-.55h3.88a21,21,0,0,0,4.76-.32A2.82,2.82,0,0,0,273.35,34a4.74,4.74,0,0,0,.61-2.55,4.51,4.51,0,0,0-.6-2.45,3,3,0,0,0-1.62-1.24,20.42,20.42,0,0,0-4.46-.24h-4.11Z"/><path class="cls-3" d="M310.32,55.37h-6.07l-2.43-7.67H290.7l-2.29,7.67h-6l10.81-33.85h5.94ZM300,42l-3.83-12.57L292.42,42Z"/><path class="cls-3" d="M310.7,55.64H304L301.61,48h-10.7l-2.3,7.66h-6.54l11-34.4h6.33l.07.19Zm-6.25-.55h5.49L299,21.79h-5.54l-10.63,33.3h5.37l2.3-7.66H302Zm-4.07-12.84h-8.33l4.13-13.79Zm-7.59-.55h6.85l-3.46-11.34Z"/><path class="cls-3" d="M331,42.92l5.43,2.1c-.85,3.79-2.25,6.56-4.23,8.3A10.54,10.54,0,0,1,325,55.94a10.78,10.78,0,0,1-8.8-4.17q-3.87-4.83-3.88-13,0-8.66,3.91-13.55a11.09,11.09,0,0,1,9.13-4.25,10.5,10.5,0,0,1,7.81,3.19,13.85,13.85,0,0,1,3.28,6.71l-5.54,1.62a7.44,7.44,0,0,0-2.12-4.21A5.29,5.29,0,0,0,325,26.78a6,6,0,0,0-5,2.68c-1.3,1.79-1.94,4.73-1.94,8.84q0,6.41,1.89,9.1a5.76,5.76,0,0,0,4.92,2.7,5.07,5.07,0,0,0,3.83-1.72A10.85,10.85,0,0,0,331,42.92"/><path class="cls-3" d="M325,56.22a11.07,11.07,0,0,1-9-4.28c-2.61-3.25-3.94-7.69-3.94-13.2,0-5.81,1.33-10.42,4-13.72a11.37,11.37,0,0,1,9.34-4.36,10.85,10.85,0,0,1,8,3.27,14.2,14.2,0,0,1,3.35,6.85l.06.26-6.08,1.77-.06-.29a7.22,7.22,0,0,0-2-4.07A5.09,5.09,0,0,0,325,27.06a5.65,5.65,0,0,0-4.8,2.56c-1.25,1.73-1.89,4.65-1.89,8.69s.62,7.19,1.85,8.93a5.45,5.45,0,0,0,4.69,2.59,4.83,4.83,0,0,0,3.63-1.64,10.59,10.59,0,0,0,2.26-5.32l.07-.32,5.95,2.3,0,.23c-.86,3.83-2.31,6.67-4.31,8.45A10.94,10.94,0,0,1,325,56.22m.36-35a10.88,10.88,0,0,0-8.92,4.15c-2.55,3.2-3.84,7.7-3.84,13.38,0,5.38,1.28,9.7,3.82,12.85A10.53,10.53,0,0,0,325,55.67a10.35,10.35,0,0,0,7.09-2.55c1.88-1.67,3.25-4.33,4.09-7.93l-4.9-1.89a10.87,10.87,0,0,1-2.34,5.27,5.37,5.37,0,0,1-4,1.81,6,6,0,0,1-5.14-2.82c-1.29-1.84-2-5-2-9.25s.67-7.19,2-9A6.22,6.22,0,0,1,325,26.51a5.6,5.6,0,0,1,3.92,1.54,7.55,7.55,0,0,1,2.14,4.07l5-1.47a13.44,13.44,0,0,0-3.15-6.33,10.34,10.34,0,0,0-7.62-3.11"/><path class="cls-3" d="M340.11,38.65a23.92,23.92,0,0,1,1.79-10,13.43,13.43,0,0,1,4.67-5.83,12.37,12.37,0,0,1,7-1.92,12,12,0,0,1,9.71,4.55Q367,30,367,38.44t-4,13.28a11.61,11.61,0,0,1-9.47,4.22,11.74,11.74,0,0,1-9.51-4.17q-4-4.79-4-13.12m5.77-.23c0,3.89.74,6.82,2.22,8.76a6.68,6.68,0,0,0,5.5,2.92,6.59,6.59,0,0,0,5.49-2.9c1.44-1.93,2.17-4.89,2.17-8.9s-.71-6.82-2.12-8.7a6.61,6.61,0,0,0-5.54-2.82A6.68,6.68,0,0,0,348,29.62c-1.43,1.89-2.15,4.83-2.15,8.8"/><path class="cls-3" d="M353.59,56.22a12,12,0,0,1-9.72-4.28c-2.68-3.22-4-7.69-4-13.29a24.33,24.33,0,0,1,1.82-10.08,13.81,13.81,0,0,1,4.77-5.94,12.71,12.71,0,0,1,7.15-2,12.32,12.32,0,0,1,9.92,4.65c2.53,3.07,3.81,7.49,3.81,13.13s-1.35,10.23-4,13.46a12,12,0,0,1-9.68,4.32m0-35a12.13,12.13,0,0,0-6.84,1.87,13.24,13.24,0,0,0-4.58,5.72,23.75,23.75,0,0,0-1.77,9.85c0,5.47,1.32,9.82,3.91,12.94a12.54,12.54,0,0,0,18.56-.05c2.59-3.12,3.91-7.53,3.91-13.1s-1.24-9.81-3.69-12.78a11.81,11.81,0,0,0-9.5-4.45m0,29.17a7,7,0,0,1-5.72-3c-1.51-2-2.27-5-2.27-8.93s.74-7,2.2-9a7.15,7.15,0,0,1,11.55,0c1.44,1.92,2.17,4.91,2.17,8.88s-.75,7.09-2.23,9.06a6.86,6.86,0,0,1-5.7,3m0-23.32a6.44,6.44,0,0,0-5.35,2.73c-1.39,1.83-2.09,4.74-2.09,8.63s.72,6.71,2.16,8.6a6.45,6.45,0,0,0,5.28,2.81A6.38,6.38,0,0,0,358.87,47c1.4-1.87,2.11-4.81,2.11-8.73s-.69-6.72-2.06-8.55a6.39,6.39,0,0,0-5.32-2.7"/><path class="cls-3" d="M380.79,44.33l5.47-.65q.93,6.49,6.06,6.49a5.72,5.72,0,0,0,4-1.32,4.28,4.28,0,0,0,1.46-3.29,3.72,3.72,0,0,0-.51-2,3.78,3.78,0,0,0-1.55-1.32,41.53,41.53,0,0,0-5-1.74,17.17,17.17,0,0,1-5.25-2.36,9,9,0,0,1-2.64-3.33,10.29,10.29,0,0,1-1-4.44,9.86,9.86,0,0,1,1.26-5,8.18,8.18,0,0,1,3.47-3.35A12,12,0,0,1,392,20.94c3.26,0,5.81.88,7.64,2.66s2.8,4.3,2.91,7.59l-5.61.3a6.1,6.1,0,0,0-1.6-3.81,5.09,5.09,0,0,0-3.48-1.08,5.6,5.6,0,0,0-3.49.94,2.86,2.86,0,0,0-1.23,2.35,2.94,2.94,0,0,0,1.12,2.32q1.11.95,5.1,2.08a21.17,21.17,0,0,1,6.11,2.57,8.81,8.81,0,0,1,2.87,3.49,12.24,12.24,0,0,1,1,5.18,10.63,10.63,0,0,1-2.71,7.41q-2.72,3-8.49,3-10.2,0-11.36-11.61"/><path class="cls-3" d="M392.15,56.22c-6.93,0-10.85-4-11.63-11.86l0-.27,6-.71,0,.27c.6,4.2,2.49,6.25,5.77,6.25a5.47,5.47,0,0,0,3.82-1.26,4,4,0,0,0,1.36-3.08,3.35,3.35,0,0,0-.47-1.82,3.5,3.5,0,0,0-1.43-1.23,46.66,46.66,0,0,0-5-1.72,17.25,17.25,0,0,1-5.32-2.4A9.15,9.15,0,0,1,382.54,35a10.52,10.52,0,0,1-1-4.56,10.2,10.2,0,0,1,1.29-5.12,8.47,8.47,0,0,1,3.59-3.45A12.26,12.26,0,0,1,392,20.67a10.87,10.87,0,0,1,7.84,2.73c1.87,1.81,2.88,4.43,3,7.78v.27l-6.13.33,0-.25a5.8,5.8,0,0,0-1.5-3.64,4.81,4.81,0,0,0-3.3-1,5.36,5.36,0,0,0-3.32.89,2.59,2.59,0,0,0-1.12,2.13,2.66,2.66,0,0,0,1,2.12,15.33,15.33,0,0,0,5,2,21.81,21.81,0,0,1,6.19,2.62,9.24,9.24,0,0,1,3,3.59,12.68,12.68,0,0,1,1,5.3,11,11,0,0,1-2.79,7.6c-1.85,2-4.78,3.09-8.69,3.09M381.09,44.57c.82,7.47,4.44,11.1,11.06,11.1,3.75,0,6.54-1,8.28-2.91a10.4,10.4,0,0,0,2.65-7.23,12,12,0,0,0-1-5.06,8.5,8.5,0,0,0-2.78-3.38,21,21,0,0,0-6-2.54c-2.73-.77-4.43-1.47-5.21-2.13a3.21,3.21,0,0,1-1.21-2.53,3.16,3.16,0,0,1,1.33-2.57,5.92,5.92,0,0,1,3.66-1,5.37,5.37,0,0,1,3.67,1.16,6.13,6.13,0,0,1,1.64,3.73l5.09-.28a10.25,10.25,0,0,0-2.81-7.14c-1.77-1.71-4.28-2.57-7.46-2.57a11.73,11.73,0,0,0-5.34,1.1,7.87,7.87,0,0,0-3.36,3.23,9.61,9.61,0,0,0-1.23,4.85,10,10,0,0,0,1,4.32A8.71,8.71,0,0,0,385.6,38a16.73,16.73,0,0,0,5.16,2.3A44.34,44.34,0,0,1,395.83,42a4,4,0,0,1,1.66,1.43,3.94,3.94,0,0,1,.55,2.11,4.57,4.57,0,0,1-1.54,3.49,6,6,0,0,1-4.19,1.4c-3.48,0-5.6-2.18-6.28-6.46Z"/><polygon class="cls-3" points="408.09 55.37 408.09 21.52 428.68 21.52 428.68 27.24 413.67 27.24 413.67 34.75 427.62 34.75 427.62 40.45 413.67 40.45 413.67 49.64 429.19 49.64 429.19 55.37 408.09 55.37"/><path class="cls-3" d="M429.46,55.64H407.81V21.24H429v6.28H414v7h13.94v6.26H414v8.64h15.51Zm-21.1-.55h20.56V49.92H413.4V40.18h14V35h-14V27h15V21.79H408.36Z"/><polygon class="cls-3" points="433.99 55.37 433.99 21.52 439.58 21.52 439.58 36.59 450.93 21.52 458.48 21.52 448.01 34.71 459.03 55.37 451.78 55.37 444.12 39.46 439.58 45.14 439.58 55.37 433.99 55.37"/><path class="cls-3" d="M459.49,55.64h-7.88l-.07-.15L444.07,40l-4.21,5.27v10.4h-6.14V21.24h6.14V35.77l10.93-14.53h8.26l-10.71,13.5ZM452,55.09h6.63L447.69,34.68l10.22-12.89h-6.84L439.31,37.41V21.79h-5v33.3h5V45L444.18,39Z"/><path class="cls-3" d="M461.86,21.52h5.59V39.85a44.92,44.92,0,0,0,.21,5.57,5.63,5.63,0,0,0,1.77,3.46,6.23,6.23,0,0,0,6.86.36,4.34,4.34,0,0,0,1.68-2.4,29.73,29.73,0,0,0,.45-6.6V21.52H484V39.3a47.37,47.37,0,0,1-.73,9.85A8.37,8.37,0,0,1,480,54.06,11,11,0,0,1,473.27,56a12.53,12.53,0,0,1-6.78-1.56A8.9,8.9,0,0,1,463,50c-.73-1.89-1.1-5.36-1.1-10.43Z"/><path class="cls-3" d="M473.27,56.22a12.92,12.92,0,0,1-6.93-1.6,9.23,9.23,0,0,1-3.64-4.52c-.74-1.91-1.11-5.45-1.11-10.53V21.24h6.13V39.85a43.93,43.93,0,0,0,.21,5.52,5.38,5.38,0,0,0,1.68,3.3,5.91,5.91,0,0,0,6.52.34,4.08,4.08,0,0,0,1.57-2.25,28.84,28.84,0,0,0,.45-6.52v-19h6.13V39.3a48.11,48.11,0,0,1-.73,9.91,8.63,8.63,0,0,1-3.39,5.07,11.34,11.34,0,0,1-6.89,1.94M462.14,21.79V39.57c0,5,.36,8.49,1.08,10.33a8.54,8.54,0,0,0,3.42,4.25,12.28,12.28,0,0,0,6.63,1.52,10.9,10.9,0,0,0,6.57-1.83A8.09,8.09,0,0,0,483,49.08a46.76,46.76,0,0,0,.72-9.78V21.79h-5V40.24a29.47,29.47,0,0,1-.46,6.67,4.66,4.66,0,0,1-1.78,2.55,5.65,5.65,0,0,1-3.33.92,5.72,5.72,0,0,1-3.87-1.29,5.92,5.92,0,0,1-1.86-3.63,45.39,45.39,0,0,1-.21-5.61V21.79Z"/><path class="cls-3" d="M489.92,55.37V21.52h11.8c3,0,5.17.3,6.46.91a7.19,7.19,0,0,1,3.19,3.16A11,11,0,0,1,512.62,31a10.08,10.08,0,0,1-1.91,6.4,8.49,8.49,0,0,1-5.41,3,13.65,13.65,0,0,1,3,2.83,39.08,39.08,0,0,1,3.21,5.5l3.37,6.61h-6.68L504.11,48a49.89,49.89,0,0,0-3-5,4.34,4.34,0,0,0-1.66-1.38,7.52,7.52,0,0,0-2.82-.38h-1.15V55.37Zm5.59-19.54h4.15a21.08,21.08,0,0,0,4.85-.33,3.21,3.21,0,0,0,1.69-1.35,5,5,0,0,0,.64-2.7,4.66,4.66,0,0,0-.64-2.6,3.28,3.28,0,0,0-1.76-1.35,21.92,21.92,0,0,0-4.55-.26h-4.38Z"/><path class="cls-3" d="M515.3,55.64H508l-4.14-7.51a49.25,49.25,0,0,0-2.95-5,4.07,4.07,0,0,0-1.55-1.3,7.36,7.36,0,0,0-2.71-.36h-.88V55.64h-6.14V21.24h12.08a16.82,16.82,0,0,1,6.58.94,7.47,7.47,0,0,1,3.31,3.28A11.29,11.29,0,0,1,512.89,31a10.4,10.4,0,0,1-2,6.57,8.55,8.55,0,0,1-5,3,13.79,13.79,0,0,1,2.54,2.52,40.85,40.85,0,0,1,3.24,5.55Zm-7-.55h6.08l-3.17-6.2a40.57,40.57,0,0,0-3.18-5.47,13.93,13.93,0,0,0-2.93-2.77l-.52-.38.64-.11a8.2,8.2,0,0,0,5.24-2.95A9.81,9.81,0,0,0,512.34,31a10.78,10.78,0,0,0-1.21-5.25,6.92,6.92,0,0,0-3.06-3.05,16.29,16.29,0,0,0-6.35-.89H490.19v33.3h5V41h1.43a7.62,7.62,0,0,1,2.93.41,4.71,4.71,0,0,1,1.77,1.46,50.54,50.54,0,0,1,3,5Zm-8.67-19h-4.43V27h4.66a21.91,21.91,0,0,1,4.64.27,3.57,3.57,0,0,1,1.9,1.46,5,5,0,0,1,.69,2.75,5.34,5.34,0,0,1-.69,2.85,3.36,3.36,0,0,1-1.84,1.46,20.81,20.81,0,0,1-4.93.35m-3.88-.55h3.88a21.1,21.1,0,0,0,4.77-.32A2.8,2.8,0,0,0,506,34a4.65,4.65,0,0,0,.61-2.55A4.42,4.42,0,0,0,506,29a3,3,0,0,0-1.62-1.24,20.42,20.42,0,0,0-4.46-.24h-4.11Z"/><rect class="cls-3" x="517.72" y="21.52" width="5.59" height="33.85"/><path class="cls-3" d="M523.58,55.64h-6.14V21.24h6.14ZM518,55.09h5V21.79h-5Z"/><polygon class="cls-3" points="534.92 55.37 534.92 27.24 526.68 27.24 526.68 21.52 548.73 21.52 548.73 27.24 540.51 27.24 540.51 55.37 534.92 55.37"/><path class="cls-3" d="M540.78,55.64h-6.14V27.52H526.4V21.24H549v6.28h-8.22Zm-5.59-.55h5V27h8.22V21.79H527V27h8.24Z"/><path class="cls-3" d="M574.57,55.37h-6.08l-2.43-7.67H555l-2.3,7.67H546.7l10.81-33.85h5.93ZM564.26,42l-3.84-12.57L556.66,42Z"/><path class="cls-3" d="M575,55.64h-6.66L565.86,48H555.15l-2.29,7.66h-6.54l11-34.4h6.34l.06.19Zm-6.26-.55h5.5l-11-33.3h-5.53l-10.64,33.3h5.38l2.29-7.66h11.52Zm-4.06-12.84H556.3l4.12-13.79ZM557,41.7h6.85l-3.45-11.34Z"/><path class="cls-3" d="M576.09,44.33l5.47-.65q.93,6.49,6.05,6.49a5.73,5.73,0,0,0,4-1.32,4.27,4.27,0,0,0,1.45-3.29,3.63,3.63,0,0,0-.51-2A3.75,3.75,0,0,0,591,42.27a41.94,41.94,0,0,0-5-1.74,17.21,17.21,0,0,1-5.24-2.36,8.78,8.78,0,0,1-2.64-3.33,10.15,10.15,0,0,1-1-4.44,9.85,9.85,0,0,1,1.25-5,8.2,8.2,0,0,1,3.48-3.35,12,12,0,0,1,5.47-1.13c3.27,0,5.81.88,7.64,2.66s2.81,4.3,2.91,7.59l-5.61.3a6,6,0,0,0-1.59-3.81,5.1,5.1,0,0,0-3.49-1.08,5.57,5.57,0,0,0-3.48.94,2.86,2.86,0,0,0-1.23,2.35,2.91,2.91,0,0,0,1.12,2.32c.73.63,2.44,1.32,5.1,2.08a21,21,0,0,1,6.1,2.57,8.75,8.75,0,0,1,2.88,3.49,12.24,12.24,0,0,1,1,5.18,10.63,10.63,0,0,1-2.71,7.41q-2.72,3-8.49,3-10.2,0-11.36-11.61"/><path class="cls-3" d="M587.45,56.22c-6.94,0-10.85-4-11.63-11.86l0-.27,6-.71,0,.27c.59,4.2,2.48,6.25,5.77,6.25a5.42,5.42,0,0,0,3.81-1.26,4,4,0,0,0,1.37-3.08,3.35,3.35,0,0,0-.47-1.82,3.47,3.47,0,0,0-1.44-1.23,45.33,45.33,0,0,0-5-1.72,17.14,17.14,0,0,1-5.32-2.4A9.15,9.15,0,0,1,577.84,35a10.52,10.52,0,0,1-1-4.56,10.2,10.2,0,0,1,1.3-5.12,8.47,8.47,0,0,1,3.59-3.45,12.23,12.23,0,0,1,5.59-1.16,10.85,10.85,0,0,1,7.83,2.73c1.88,1.81,2.89,4.43,3,7.78v.27l-6.13.33,0-.25a5.86,5.86,0,0,0-1.5-3.64,4.82,4.82,0,0,0-3.31-1,5.38,5.38,0,0,0-3.32.89,2.58,2.58,0,0,0-1.11,2.13,2.68,2.68,0,0,0,1,2.12,15.54,15.54,0,0,0,5,2,21.55,21.55,0,0,1,6.19,2.62,9.18,9.18,0,0,1,3,3.59,12.69,12.69,0,0,1,1,5.3,11,11,0,0,1-2.78,7.6c-1.85,2-4.78,3.09-8.69,3.09M576.39,44.57c.82,7.47,4.44,11.1,11.06,11.1,3.75,0,6.54-1,8.28-2.91a10.4,10.4,0,0,0,2.65-7.23,12,12,0,0,0-1-5.06,8.52,8.52,0,0,0-2.79-3.38,20.79,20.79,0,0,0-6-2.54c-2.72-.77-4.43-1.47-5.2-2.13a3.2,3.2,0,0,1,.12-5.1,5.91,5.91,0,0,1,3.65-1,5.35,5.35,0,0,1,3.67,1.16,6.07,6.07,0,0,1,1.65,3.73l5.09-.28a10.25,10.25,0,0,0-2.82-7.14c-1.77-1.71-4.27-2.57-7.45-2.57a11.73,11.73,0,0,0-5.34,1.1,8,8,0,0,0-3.37,3.23,9.7,9.7,0,0,0-1.22,4.85,9.86,9.86,0,0,0,1,4.32A8.71,8.71,0,0,0,580.9,38a16.77,16.77,0,0,0,5.15,2.3A44,44,0,0,1,591.13,42a4.13,4.13,0,0,1,1.66,1.43,3.94,3.94,0,0,1,.55,2.11,4.55,4.55,0,0,1-1.55,3.49,6,6,0,0,1-4.18,1.4c-3.49,0-5.6-2.18-6.28-6.46Z"/><path class="cls-3" d="M140.92,102.52V81.74h3.39l4,14.72.81,3.07c.2-.76.5-1.87.91-3.33l4.09-14.46h3v20.78H155V85.14l-5,17.38h-2l-4.94-17.68v17.68Z"/><path class="cls-3" d="M157.33,102.66h-2.44V86.12l-4.73,16.54h-2.24l0-.1-4.67-16.71v16.81h-2.44V81.6h3.63l0,.11,4.05,14.71.67,2.57c.2-.73.46-1.68.78-2.83l4.11-14.56h3.28Zm-2.17-.27h1.89V81.88h-2.79L150.2,96.24c-.4,1.43-.7,2.55-.91,3.33l-.13.51-.94-3.59-4-14.61h-3.15v20.51H143V83.84l5.18,18.55H150l5.21-18.23Z"/><path class="cls-3" d="M169,97.67l2.15.33a6.56,6.56,0,0,1-2,3.64,5.11,5.11,0,0,1-3.49,1.22,5.21,5.21,0,0,1-4.25-2,8.91,8.91,0,0,1-1.62-5.75,9.26,9.26,0,0,1,1.64-5.94,5.07,5.07,0,0,1,4.14-2.05,4.92,4.92,0,0,1,4,2,9.18,9.18,0,0,1,1.6,5.83v.68H162a6.49,6.49,0,0,0,1.18,3.82,3.16,3.16,0,0,0,2.55,1.3q2.35,0,3.28-3.1m-6.88-4.12H169a5.63,5.63,0,0,0-.84-2.92,3,3,0,0,0-5-.23,5.16,5.16,0,0,0-1.09,3.15"/><path class="cls-3" d="M165.67,103a5.36,5.36,0,0,1-4.35-2,9.07,9.07,0,0,1-1.66-5.84,9.52,9.52,0,0,1,1.67-6,5.25,5.25,0,0,1,4.25-2.1,5.07,5.07,0,0,1,4.11,2.07A9.37,9.37,0,0,1,171.32,95l0,.82h-9.2a6.27,6.27,0,0,0,1.14,3.6,3.07,3.07,0,0,0,2.44,1.24c1.52,0,2.55-1,3.15-3l0-.12,2.42.37,0,.14a6.72,6.72,0,0,1-2,3.71,5.27,5.27,0,0,1-3.58,1.26m-.09-15.73a5,5,0,0,0-4,2,9.32,9.32,0,0,0-1.6,5.86,8.81,8.81,0,0,0,1.59,5.67,5.12,5.12,0,0,0,4.14,1.94,5,5,0,0,0,3.4-1.2,6.24,6.24,0,0,0,1.87-3.41l-1.89-.29c-.63,2-1.77,3.07-3.37,3.07A3.31,3.31,0,0,1,163,99.56a6.58,6.58,0,0,1-1.21-3.91v-.14H171l0-.54a9,9,0,0,0-1.58-5.74,4.79,4.79,0,0,0-3.89-2m3.54,6.42h-7.18v-.15a5.3,5.3,0,0,1,1.13-3.23,3.16,3.16,0,0,1,2.5-1.22,3.19,3.19,0,0,1,2.68,1.46,6,6,0,0,1,.86,3Zm-6.89-.28h6.59a5.4,5.4,0,0,0-.8-2.7,2.87,2.87,0,0,0-2.45-1.34,2.91,2.91,0,0,0-2.29,1.11,4.9,4.9,0,0,0-1.05,2.93"/><path class="cls-3" d="M173.78,102.52v-15h1.87v2.1a4.8,4.8,0,0,1,1.6-1.81,3.85,3.85,0,0,1,2.13-.63,3.53,3.53,0,0,1,2.2.67,3.7,3.7,0,0,1,1.29,2,5.62,5.62,0,0,1,1.69-2,3.7,3.7,0,0,1,2.13-.66,3.48,3.48,0,0,1,2.8,1.2,5.88,5.88,0,0,1,1,3.86v10.33h-2.09V93a7.68,7.68,0,0,0-.23-2.29,2.11,2.11,0,0,0-.76-1,2.08,2.08,0,0,0-1.19-.36A2.69,2.69,0,0,0,184,90.4a5.39,5.39,0,0,0-.85,3.37v8.75h-2.08V92.73a4.56,4.56,0,0,0-.58-2.64,1.86,1.86,0,0,0-1.58-.76,2.63,2.63,0,0,0-2.26,1.15,7.71,7.71,0,0,0-.83,4.22v7.82Z"/><path class="cls-3" d="M190.65,102.66H188.3V93a7.76,7.76,0,0,0-.23-2.25,2,2,0,0,0-.71-1,1.9,1.9,0,0,0-1.11-.35,2.57,2.57,0,0,0-2.1,1,5.29,5.29,0,0,0-.82,3.29v8.89H181V92.73a4.5,4.5,0,0,0-.55-2.56,1.74,1.74,0,0,0-1.47-.71,2.48,2.48,0,0,0-2.15,1.1,7.68,7.68,0,0,0-.8,4.15v8h-2.36V87.33h2.15v1.73a4.65,4.65,0,0,1,1.38-1.41,4,4,0,0,1,2.21-.66,3.76,3.76,0,0,1,2.29.7,3.65,3.65,0,0,1,1.23,1.73,5.67,5.67,0,0,1,1.59-1.75,3.84,3.84,0,0,1,2.2-.68,3.65,3.65,0,0,1,2.91,1.25,6.1,6.1,0,0,1,1.05,4Zm-2.08-.27h1.81V92.19a5.81,5.81,0,0,0-1-3.77,3.35,3.35,0,0,0-2.7-1.15,3.57,3.57,0,0,0-2.05.63A5.59,5.59,0,0,0,183,89.82l-.15.28-.1-.31a3.46,3.46,0,0,0-1.23-1.88,3.42,3.42,0,0,0-2.12-.64,3.71,3.71,0,0,0-2.06.61,4.65,4.65,0,0,0-1.55,1.75l-.26.49V87.61h-1.6v14.78h1.81V94.71c0-2.1.28-3.5.86-4.31A2.78,2.78,0,0,1,179,89.19a2,2,0,0,1,1.69.82,4.58,4.58,0,0,1,.6,2.72v9.66h1.81V93.77a5.53,5.53,0,0,1,.89-3.46,2.84,2.84,0,0,1,2.31-1.12,2.14,2.14,0,0,1,1.26.39,2.22,2.22,0,0,1,.82,1.11,8,8,0,0,1,.24,2.34Z"/><path class="cls-3" d="M195.51,102.52h-1.94V81.74h2.09v7.42a4.9,4.9,0,0,1,1.51-1.53,3.65,3.65,0,0,1,1.88-.5,4.38,4.38,0,0,1,2.63.86,5.87,5.87,0,0,1,1.89,2.63,11.24,11.24,0,0,1,.71,4.26,9.49,9.49,0,0,1-1.6,5.91,4.67,4.67,0,0,1-3.75,2.07,3.42,3.42,0,0,1-1.94-.56,4.65,4.65,0,0,1-1.48-1.66Zm0-7.64a11,11,0,0,0,.42,3.51,4,4,0,0,0,1.21,1.77,2.79,2.79,0,0,0,1.73.61,2.82,2.82,0,0,0,2.3-1.46,7.65,7.65,0,0,0,1-4.34,7.65,7.65,0,0,0-1-4.35,2.81,2.81,0,0,0-2.37-1.39,2.85,2.85,0,0,0-2.31,1.45,7.36,7.36,0,0,0-1,4.2"/><path class="cls-3" d="M198.93,103a3.66,3.66,0,0,1-2-.58,4.54,4.54,0,0,1-1.28-1.3v1.54h-2.21v-21h2.37v7.11a4.75,4.75,0,0,1,1.3-1.21,3.82,3.82,0,0,1,2-.52,4.51,4.51,0,0,1,2.71.89,6,6,0,0,1,1.94,2.68,11.59,11.59,0,0,1,.72,4.32,9.68,9.68,0,0,1-1.63,6,4.82,4.82,0,0,1-3.86,2.13m-3.56-2.88.26.45a4.5,4.5,0,0,0,1.44,1.62,3.3,3.3,0,0,0,1.86.54,4.54,4.54,0,0,0,3.64-2,9.42,9.42,0,0,0,1.58-5.82,11.41,11.41,0,0,0-.7-4.21,5.9,5.9,0,0,0-1.85-2.57,4.27,4.27,0,0,0-2.55-.83,3.5,3.5,0,0,0-1.81.48,4.59,4.59,0,0,0-1.46,1.48l-.25.39V81.88H193.7v20.51h1.67Zm3.47.78a2.89,2.89,0,0,1-1.81-.63,4.14,4.14,0,0,1-1.26-1.84,11.22,11.22,0,0,1-.43-3.55,7.47,7.47,0,0,1,1-4.28,2.78,2.78,0,0,1,4.91-.06,7.85,7.85,0,0,1,1,4.43,7.84,7.84,0,0,1-1,4.42,3,3,0,0,1-2.41,1.51m0-11.54a2.74,2.74,0,0,0-2.2,1.4,7.26,7.26,0,0,0-1,4.12,10.68,10.68,0,0,0,.42,3.46,3.9,3.9,0,0,0,1.16,1.71,2.68,2.68,0,0,0,1.65.58,2.71,2.71,0,0,0,2.19-1.4A7.56,7.56,0,0,0,202,95a7.57,7.57,0,0,0-.94-4.27,2.67,2.67,0,0,0-2.26-1.34"/><path class="cls-3" d="M215.27,97.67l2.15.33a6.56,6.56,0,0,1-1.95,3.64,5.11,5.11,0,0,1-3.49,1.22,5.22,5.22,0,0,1-4.25-2,8.91,8.91,0,0,1-1.62-5.75,9.26,9.26,0,0,1,1.64-5.94,5.07,5.07,0,0,1,4.14-2.05,4.92,4.92,0,0,1,4,2,9.18,9.18,0,0,1,1.6,5.83v.68h-9.22a6.49,6.49,0,0,0,1.18,3.82,3.16,3.16,0,0,0,2.55,1.3q2.35,0,3.28-3.1m-6.88-4.12h6.89a5.63,5.63,0,0,0-.84-2.92,3,3,0,0,0-5-.23,5.16,5.16,0,0,0-1.09,3.15"/><path class="cls-3" d="M212,103a5.38,5.38,0,0,1-4.35-2A9.07,9.07,0,0,1,206,95.12a9.52,9.52,0,0,1,1.67-6,5.25,5.25,0,0,1,4.25-2.1A5.07,5.07,0,0,1,216,89.06,9.37,9.37,0,0,1,217.63,95l0,.82h-9.2a6.27,6.27,0,0,0,1.14,3.6,3.07,3.07,0,0,0,2.44,1.24c1.52,0,2.55-1,3.15-3l0-.12,2.42.37,0,.14a6.72,6.72,0,0,1-2,3.71A5.25,5.25,0,0,1,212,103m-.09-15.73a5,5,0,0,0-4,2,9.32,9.32,0,0,0-1.6,5.86,8.81,8.81,0,0,0,1.59,5.67,5.12,5.12,0,0,0,4.14,1.94,5,5,0,0,0,3.4-1.2,6.31,6.31,0,0,0,1.88-3.41l-1.9-.29c-.63,2-1.77,3.07-3.37,3.07a3.31,3.31,0,0,1-2.65-1.34,6.58,6.58,0,0,1-1.21-3.91v-.14h9.22l0-.54a9,9,0,0,0-1.58-5.74,4.79,4.79,0,0,0-3.89-2m3.54,6.42h-7.18v-.15a5.3,5.3,0,0,1,1.13-3.23,3.18,3.18,0,0,1,5.18.24,6,6,0,0,1,.86,3Zm-6.89-.28h6.59a5.47,5.47,0,0,0-.8-2.7,2.87,2.87,0,0,0-2.45-1.34,2.91,2.91,0,0,0-2.29,1.11,4.9,4.9,0,0,0-1.05,2.93"/><path class="cls-3" d="M220.07,102.52v-15H222v2.28a6.31,6.31,0,0,1,1.32-2.1,2,2,0,0,1,1.36-.52,3.56,3.56,0,0,1,2.14.82l-.71,2.37a2.63,2.63,0,0,0-1.52-.55,1.86,1.86,0,0,0-1.22.46,2.5,2.5,0,0,0-.78,1.31,12,12,0,0,0-.39,3.1v7.88Z"/><path class="cls-3" d="M222.29,102.66h-2.35V87.33h2.15v1.81a5.69,5.69,0,0,1,1.1-1.6,2.22,2.22,0,0,1,1.45-.55,3.76,3.76,0,0,1,2.22.85l.08.06-.79,2.64-.16-.11a2,2,0,0,0-2.57-.09,2.41,2.41,0,0,0-.73,1.23,11.74,11.74,0,0,0-.4,3.07Zm-2.08-.27H222V94.64a11.85,11.85,0,0,1,.4-3.14,2.73,2.73,0,0,1,.82-1.37,2.19,2.19,0,0,1,2.75,0l.63-2.1a3.44,3.44,0,0,0-2-.73,1.85,1.85,0,0,0-1.27.48,6.35,6.35,0,0,0-1.29,2.06l-.26.58V87.61h-1.61Z"/><path class="cls-3" d="M233.82,95a9.11,9.11,0,0,1,1.64-5.89,5.31,5.31,0,0,1,8.27,0,8.72,8.72,0,0,1,1.66,5.73c0,2.7-.54,4.72-1.63,6a5.32,5.32,0,0,1-8.29,0A9,9,0,0,1,233.82,95M236,95A7.26,7.26,0,0,0,237,99.34a3.18,3.18,0,0,0,2.63,1.43,3.05,3.05,0,0,0,2.53-1.45A7.23,7.23,0,0,0,243.25,95a7.32,7.32,0,0,0-1.06-4.34,3.19,3.19,0,0,0-2.64-1.42A3.07,3.07,0,0,0,237,90.66,7.33,7.33,0,0,0,236,95"/><path class="cls-3" d="M239.61,103a5.29,5.29,0,0,1-4.24-2,9.17,9.17,0,0,1-1.68-6,9.28,9.28,0,0,1,1.66-6,5.44,5.44,0,0,1,8.49,0,8.87,8.87,0,0,1,1.69,5.81c0,2.72-.56,4.78-1.67,6.13a5.27,5.27,0,0,1-4.25,2m0-15.73a5,5,0,0,0-4,1.93C234.5,90.49,234,92.44,234,95a8.93,8.93,0,0,0,1.62,5.78,5.16,5.16,0,0,0,8.07,0c1.06-1.29,1.6-3.29,1.6-6a8.68,8.68,0,0,0-1.62-5.64,5.08,5.08,0,0,0-4-1.93m0,13.63a3.32,3.32,0,0,1-2.74-1.48A7.38,7.38,0,0,1,235.83,95a7.51,7.51,0,0,1,1.07-4.41,3.22,3.22,0,0,1,2.65-1.49,3.35,3.35,0,0,1,2.75,1.48A7.44,7.44,0,0,1,243.39,95a7.48,7.48,0,0,1-1.09,4.42,3.2,3.2,0,0,1-2.64,1.49m-.11-11.54a3,3,0,0,0-2.43,1.38,7.24,7.24,0,0,0-1,4.25,7.16,7.16,0,0,0,1,4.27,3,3,0,0,0,2.52,1.37,3,3,0,0,0,2.42-1.39,7.23,7.23,0,0,0,1-4.25,7.19,7.19,0,0,0-1-4.25,3.08,3.08,0,0,0-2.53-1.38"/><path class="cls-3" d="M248.44,102.52V89.45h-1.86v-2h1.86v-1.6a7.2,7.2,0,0,1,.37-2.66,2.74,2.74,0,0,1,1.13-1.35,3.49,3.49,0,0,1,1.91-.47,8,8,0,0,1,2,.27l-.31,2.21a5.55,5.55,0,0,0-1.24-.14,1.64,1.64,0,0,0-1.34.49,3,3,0,0,0-.4,1.86v1.39h2.41v2h-2.41v13.07Z"/><path class="cls-3" d="M250.66,102.66H248.3V89.59h-1.86V87.33h1.86V85.87a7.43,7.43,0,0,1,.38-2.71,3,3,0,0,1,1.18-1.42,5.32,5.32,0,0,1,4-.22l.12,0L253.61,84l-.14,0a5.87,5.87,0,0,0-1.21-.13,1.53,1.53,0,0,0-1.23.43,3,3,0,0,0-.37,1.78v1.25h2.41v2.26h-2.41Zm-2.09-.27h1.81V89.32h2.41V87.61h-2.41V86.08a3.15,3.15,0,0,1,.44-2,1.76,1.76,0,0,1,1.44-.54,6.33,6.33,0,0,1,1.12.11l.28-1.94A5,5,0,0,0,250,82a2.75,2.75,0,0,0-1.08,1.29,7.19,7.19,0,0,0-.36,2.61v1.74h-1.85v1.71h1.85Z"/><rect class="cls-3" x="261.82" y="81.74" width="2.25" height="20.78"/><path class="cls-3" d="M264.21,102.66h-2.53V81.6h2.53Zm-2.25-.27h2V81.88h-2Z"/><path class="cls-3" d="M267.72,102.52v-15h1.88V89.6a4.9,4.9,0,0,1,1.66-1.86,4.18,4.18,0,0,1,2.26-.61,4.29,4.29,0,0,1,1.83.39,3.75,3.75,0,0,1,1.36,1,4.1,4.1,0,0,1,.77,1.64,13.59,13.59,0,0,1,.26,3.09v9.25h-2.09V93.36a7.56,7.56,0,0,0-.28-2.43,2.33,2.33,0,0,0-2.28-1.6,2.91,2.91,0,0,0-2.4,1.12,6.32,6.32,0,0,0-.89,3.84v8.23Z"/><path class="cls-3" d="M277.88,102.66h-2.36v-9.3a7.49,7.49,0,0,0-.28-2.38,2.33,2.33,0,0,0-.83-1.12,2.29,2.29,0,0,0-1.32-.4,2.75,2.75,0,0,0-2.29,1.07,6.25,6.25,0,0,0-.86,3.76v8.37h-2.36V87.33h2.16V89.1a4.74,4.74,0,0,1,1.45-1.47,4.25,4.25,0,0,1,2.33-.64,4.57,4.57,0,0,1,1.89.4,4,4,0,0,1,1.41,1.06,4.58,4.58,0,0,1,.8,1.69,14,14,0,0,1,.26,3.13Zm-2.09-.27h1.81V93.27a13.47,13.47,0,0,0-.25-3.06,3.94,3.94,0,0,0-.75-1.58,3.54,3.54,0,0,0-1.3-1,4.24,4.24,0,0,0-1.78-.37,4.07,4.07,0,0,0-2.18.59,4.69,4.69,0,0,0-1.62,1.8l-.26.47V87.61h-1.61v14.78h1.81v-8.1a6.47,6.47,0,0,1,.92-3.93,3.07,3.07,0,0,1,2.51-1.17,2.55,2.55,0,0,1,1.47.44,2.59,2.59,0,0,1,.94,1.25,7.53,7.53,0,0,1,.29,2.48Z"/><path class="cls-3" d="M289,102.52v-1.9a4.29,4.29,0,0,1-1.46,1.67,3.51,3.51,0,0,1-1.93.57,4.68,4.68,0,0,1-3.78-2.06,9.31,9.31,0,0,1-1.59-5.8,11.83,11.83,0,0,1,.71-4.35A5.81,5.81,0,0,1,282.79,88a4.35,4.35,0,0,1,2.62-.86,3.54,3.54,0,0,1,1.92.55,4.27,4.27,0,0,1,1.46,1.52V81.74h2.12v20.78ZM282.33,95a7.47,7.47,0,0,0,1,4.34,2.9,2.9,0,0,0,2.36,1.42A2.83,2.83,0,0,0,288,99.4a7,7,0,0,0,1-4.11,8.47,8.47,0,0,0-1-4.61,2.91,2.91,0,0,0-2.47-1.45,2.72,2.72,0,0,0-2.27,1.39,8,8,0,0,0-.95,4.39"/><path class="cls-3" d="M285.56,103a4.8,4.8,0,0,1-3.88-2.12A9.43,9.43,0,0,1,280.05,95a12,12,0,0,1,.72-4.41,6,6,0,0,1,1.94-2.71,4.46,4.46,0,0,1,2.7-.89,3.71,3.71,0,0,1,2,.57,4.54,4.54,0,0,1,1.26,1.18V81.61H291v21h-2.23v-1.53a4,4,0,0,1-1.25,1.27,3.58,3.58,0,0,1-2,.6m-.15-15.73a4.24,4.24,0,0,0-2.54.83A5.6,5.6,0,0,0,281,90.7a11.56,11.56,0,0,0-.7,4.3,9.22,9.22,0,0,0,1.56,5.72,4.58,4.58,0,0,0,3.67,2,3.32,3.32,0,0,0,1.85-.56,4.08,4.08,0,0,0,1.42-1.61l.26-.5v2.33h1.68V81.88h-1.84V89.7l-.25-.43a4.39,4.39,0,0,0-1.42-1.48,3.47,3.47,0,0,0-1.85-.52m.3,13.63a3,3,0,0,1-2.48-1.47,7.67,7.67,0,0,1-1-4.42,8.05,8.05,0,0,1,1-4.46,2.85,2.85,0,0,1,2.38-1.46,3,3,0,0,1,2.58,1.51,8.58,8.58,0,0,1,1,4.69,7.16,7.16,0,0,1-1,4.19,2.94,2.94,0,0,1-2.42,1.42m-.16-11.54a2.62,2.62,0,0,0-2.16,1.34,7.89,7.89,0,0,0-.92,4.31,7.38,7.38,0,0,0,1,4.26,2.77,2.77,0,0,0,2.25,1.36,2.72,2.72,0,0,0,2.2-1.31,6.94,6.94,0,0,0,.95-4,8.29,8.29,0,0,0-1-4.53,2.74,2.74,0,0,0-2.35-1.4"/><path class="cls-3" d="M293.4,95A9.11,9.11,0,0,1,295,89.11a5.31,5.31,0,0,1,8.27,0A8.72,8.72,0,0,1,305,94.84c0,2.7-.55,4.72-1.63,6a5.32,5.32,0,0,1-8.29,0A9,9,0,0,1,293.4,95m2.14,0a7.33,7.33,0,0,0,1.06,4.35,3.2,3.2,0,0,0,2.64,1.43,3.06,3.06,0,0,0,2.53-1.45A7.31,7.31,0,0,0,302.83,95a7.24,7.24,0,0,0-1.07-4.34,3.17,3.17,0,0,0-2.63-1.42,3.06,3.06,0,0,0-2.54,1.43,7.33,7.33,0,0,0-1,4.33"/><path class="cls-3" d="M299.18,103a5.28,5.28,0,0,1-4.23-2,9.17,9.17,0,0,1-1.69-6,9.28,9.28,0,0,1,1.67-6,5.44,5.44,0,0,1,8.49,0,8.88,8.88,0,0,1,1.68,5.81c0,2.72-.55,4.78-1.66,6.13a5.29,5.29,0,0,1-4.26,2m0-15.73a5,5,0,0,0-4,1.93,9,9,0,0,0-1.6,5.8,8.87,8.87,0,0,0,1.62,5.78,5.16,5.16,0,0,0,8.07,0c1.06-1.29,1.6-3.29,1.6-6a8.62,8.62,0,0,0-1.63-5.64,5.05,5.05,0,0,0-4-1.93m.06,13.63a3.32,3.32,0,0,1-2.74-1.48A7.37,7.37,0,0,1,295.4,95a7.52,7.52,0,0,1,1.08-4.41,3.21,3.21,0,0,1,2.65-1.49,3.32,3.32,0,0,1,2.74,1.48A7.36,7.36,0,0,1,303,95a7.48,7.48,0,0,1-1.09,4.42,3.23,3.23,0,0,1-2.64,1.49m-.11-11.54a3,3,0,0,0-2.43,1.38,7.24,7.24,0,0,0-1,4.25,7.26,7.26,0,0,0,1,4.27,3.07,3.07,0,0,0,2.53,1.37,3,3,0,0,0,2.42-1.39,7.23,7.23,0,0,0,1-4.25,7.11,7.11,0,0,0-1-4.25,3.05,3.05,0,0,0-2.52-1.38"/><path class="cls-3" d="M307.43,102.52v-15h1.89V89.6A4.9,4.9,0,0,1,311,87.74a4.18,4.18,0,0,1,2.26-.61,4.29,4.29,0,0,1,1.83.39,3.84,3.84,0,0,1,1.36,1,4.24,4.24,0,0,1,.77,1.64,13.59,13.59,0,0,1,.26,3.09v9.25h-2.09V93.36a7.56,7.56,0,0,0-.28-2.43,2.46,2.46,0,0,0-.89-1.19,2.42,2.42,0,0,0-1.39-.41,2.9,2.9,0,0,0-2.4,1.12,6.25,6.25,0,0,0-.89,3.84v8.23Z"/><path class="cls-3" d="M317.59,102.66h-2.35v-9.3A7.49,7.49,0,0,0,315,91a2.29,2.29,0,0,0-.84-1.12,2.23,2.23,0,0,0-1.31-.4,2.75,2.75,0,0,0-2.29,1.07,6.25,6.25,0,0,0-.86,3.76v8.37H307.3V87.33h2.16V89.1a4.74,4.74,0,0,1,1.45-1.47,4.25,4.25,0,0,1,2.33-.64,4.57,4.57,0,0,1,1.89.4,4,4,0,0,1,1.41,1.06,4.42,4.42,0,0,1,.79,1.69,13.42,13.42,0,0,1,.26,3.13Zm-2.08-.27h1.81V93.27a14.09,14.09,0,0,0-.25-3.06,3.94,3.94,0,0,0-.75-1.58,3.58,3.58,0,0,0-1.31-1,4.16,4.16,0,0,0-1.77-.37,4.07,4.07,0,0,0-2.18.59,4.69,4.69,0,0,0-1.62,1.8l-.26.47V87.61h-1.61v14.78h1.81v-8.1a6.47,6.47,0,0,1,.92-3.93,3.06,3.06,0,0,1,2.51-1.17,2.55,2.55,0,0,1,1.47.44,2.59,2.59,0,0,1,.94,1.25,7.9,7.9,0,0,1,.29,2.48Z"/><path class="cls-3" d="M329.11,97.67l2.15.33a6.56,6.56,0,0,1-1.95,3.64,5.11,5.11,0,0,1-3.49,1.22,5.19,5.19,0,0,1-4.24-2A8.85,8.85,0,0,1,320,95.12a9.32,9.32,0,0,1,1.64-5.94,5.07,5.07,0,0,1,4.14-2.05,4.92,4.92,0,0,1,4,2,9.18,9.18,0,0,1,1.6,5.83v.68h-9.21a6.42,6.42,0,0,0,1.17,3.82,3.16,3.16,0,0,0,2.55,1.3c1.57,0,2.67-1,3.28-3.1m-6.88-4.12h6.89a5.73,5.73,0,0,0-.83-2.92,3.07,3.07,0,0,0-2.57-1.4,3,3,0,0,0-2.39,1.17,5.1,5.1,0,0,0-1.1,3.15"/><path class="cls-3" d="M325.82,103a5.38,5.38,0,0,1-4.35-2,9.07,9.07,0,0,1-1.66-5.84,9.52,9.52,0,0,1,1.67-6,5.26,5.26,0,0,1,4.26-2.1,5.07,5.07,0,0,1,4.1,2.07A9.37,9.37,0,0,1,331.47,95l0,.82h-9.2a6.27,6.27,0,0,0,1.14,3.6,3.07,3.07,0,0,0,2.44,1.24c1.52,0,2.55-1,3.15-3l0-.12,2.42.37,0,.14a6.72,6.72,0,0,1-2,3.71,5.25,5.25,0,0,1-3.58,1.26m-.08-15.73a5,5,0,0,0-4,2,9.25,9.25,0,0,0-1.61,5.86,8.81,8.81,0,0,0,1.59,5.67,5.12,5.12,0,0,0,4.14,1.94,5,5,0,0,0,3.4-1.2,6.35,6.35,0,0,0,1.88-3.41l-1.89-.29c-.64,2-1.78,3.07-3.38,3.07a3.31,3.31,0,0,1-2.65-1.34A6.65,6.65,0,0,1,322,95.65v-.14h9.23V95a9.11,9.11,0,0,0-1.57-5.74,4.82,4.82,0,0,0-3.89-2m3.53,6.42h-7.18v-.15a5.23,5.23,0,0,1,1.12-3.23,3.18,3.18,0,0,1,5.18.24,6,6,0,0,1,.86,3Zm-6.89-.28H329a5.68,5.68,0,0,0-.8-2.7,2.92,2.92,0,0,0-4.75-.23,5,5,0,0,0-1.05,2.93"/><path class="cls-3" d="M333.11,98l2.08-.4a3.77,3.77,0,0,0,1,2.37,3,3,0,0,0,2.18.78,3,3,0,0,0,2.1-.68,2.19,2.19,0,0,0,.74-1.71,1.69,1.69,0,0,0-.63-1.39,8.94,8.94,0,0,0-2.13-.85,15.39,15.39,0,0,1-3.26-1.27,3.67,3.67,0,0,1-1.28-1.4,4.36,4.36,0,0,1-.45-2,4.21,4.21,0,0,1,1.23-3.14,4.69,4.69,0,0,1,3.42-1.2,5.59,5.59,0,0,1,2.42.5A3.82,3.82,0,0,1,342.12,89a5.73,5.73,0,0,1,.77,2.39l-2,.34a2.45,2.45,0,0,0-2.68-2.46,3.18,3.18,0,0,0-2,.54,1.73,1.73,0,0,0-.67,1.39,1.56,1.56,0,0,0,.64,1.31,11.69,11.69,0,0,0,2.27.91,17.48,17.48,0,0,1,3.36,1.31A3.29,3.29,0,0,1,342.93,96a4.45,4.45,0,0,1,.42,2,4.67,4.67,0,0,1-1.36,3.49,5.14,5.14,0,0,1-3.74,1.33q-4.44,0-5.14-4.84"/><path class="cls-3" d="M338.25,103c-3,0-4.8-1.67-5.28-5l0-.12,2.36-.45v.14a3.63,3.63,0,0,0,1,2.29,3.38,3.38,0,0,0,4.09.1,2,2,0,0,0,.7-1.6,1.52,1.52,0,0,0-.59-1.29,8.21,8.21,0,0,0-2.08-.82,15.21,15.21,0,0,1-3.29-1.3,3.71,3.71,0,0,1-1.33-1.45,4.46,4.46,0,0,1-.47-2.06,4.31,4.31,0,0,1,1.28-3.23A4.8,4.8,0,0,1,338.11,87a5.75,5.75,0,0,1,2.48.51,4,4,0,0,1,1.65,1.38,6,6,0,0,1,.78,2.45l0,.14-2.32.38v-.14a2.31,2.31,0,0,0-2.54-2.35,3,3,0,0,0-1.94.52,1.54,1.54,0,0,0-.62,1.28,1.4,1.4,0,0,0,.58,1.2,10,10,0,0,0,2.24.89,16.37,16.37,0,0,1,3.39,1.33A3.46,3.46,0,0,1,343.05,96a4.57,4.57,0,0,1,.44,2.06,4.81,4.81,0,0,1-1.41,3.6,5.27,5.27,0,0,1-3.83,1.37m-5-4.87c.49,3.09,2.13,4.6,5,4.6a5,5,0,0,0,3.64-1.3,4.56,4.56,0,0,0,1.33-3.4,4.31,4.31,0,0,0-.41-1.94,3.15,3.15,0,0,0-1.14-1.28,16.46,16.46,0,0,0-3.33-1.3,10.85,10.85,0,0,1-2.31-.93,1.67,1.67,0,0,1-.69-1.42,1.88,1.88,0,0,1,.71-1.5,3.33,3.33,0,0,1,2.12-.57A2.55,2.55,0,0,1,341,91.53l1.77-.29A5.56,5.56,0,0,0,342,89a3.78,3.78,0,0,0-1.54-1.28,5.5,5.5,0,0,0-2.36-.48,4.58,4.58,0,0,0-3.32,1.16,4.1,4.1,0,0,0-1.19,3A4,4,0,0,0,334,93.4a3.32,3.32,0,0,0,1.22,1.35A14.76,14.76,0,0,0,338.49,96a8,8,0,0,1,2.17.88,1.79,1.79,0,0,1,.69,1.5,2.31,2.31,0,0,1-.79,1.8,3.11,3.11,0,0,1-2.19.71,3.17,3.17,0,0,1-2.27-.81,3.8,3.8,0,0,1-1-2.31Z"/><path class="cls-3" d="M345.82,81.74h2.09v2.94h-2.09Zm0,5.73h2.09v15h-2.09Z"/><path class="cls-3" d="M348,102.66h-2.36V87.33H348Zm-2.08-.27h1.81V87.61H346ZM348,84.82h-2.36V81.61H348ZM346,84.54h1.81V81.88H346Z"/><path class="cls-3" d="M359.14,100.67a7.76,7.76,0,0,1-2.18,1.64,5.26,5.26,0,0,1-2.35.55,4.12,4.12,0,0,1-3.08-1.16,4.27,4.27,0,0,1-1.14-3.13,4.92,4.92,0,0,1,.53-2.31,3.93,3.93,0,0,1,1.48-1.57,7.69,7.69,0,0,1,2.83-.84A15.75,15.75,0,0,0,359,93V92.3a3.29,3.29,0,0,0-.55-2.17,3,3,0,0,0-2.4-.9,3.36,3.36,0,0,0-2.18.6,4,4,0,0,0-1.07,2.27l-2.05-.34a5.69,5.69,0,0,1,1.78-3.53,5.91,5.91,0,0,1,3.83-1.1,5.46,5.46,0,0,1,3,.73,3.17,3.17,0,0,1,1.4,1.81,13,13,0,0,1,.29,3.14v3.41a43.91,43.91,0,0,0,.13,4.5,6.76,6.76,0,0,0,.53,1.8h-2.18a6.37,6.37,0,0,1-.43-1.85M359,95a13.12,13.12,0,0,1-3.42,1,6.14,6.14,0,0,0-1.84.52,2,2,0,0,0-.82.82,2.6,2.6,0,0,0-.29,1.23,2.26,2.26,0,0,0,.67,1.72,2.53,2.53,0,0,0,1.84.64,3.67,3.67,0,0,0,2-.58,3.55,3.55,0,0,0,1.37-1.55A7,7,0,0,0,359,95.9Z"/><path class="cls-3" d="M354.61,103a4.24,4.24,0,0,1-3.17-1.2,4.42,4.42,0,0,1-1.19-3.23,5.09,5.09,0,0,1,.55-2.38,4.19,4.19,0,0,1,1.53-1.62,7.76,7.76,0,0,1,2.88-.86,16.08,16.08,0,0,0,3.63-.85V92.3a3.11,3.11,0,0,0-.52-2.07,2.84,2.84,0,0,0-2.29-.87,3.22,3.22,0,0,0-2.09.58,3.82,3.82,0,0,0-1,2.19l0,.13-2.32-.38,0-.14a5.9,5.9,0,0,1,1.83-3.61A6,6,0,0,1,356.35,87a5.66,5.66,0,0,1,3.13.75,3.31,3.31,0,0,1,1.45,1.89,12.84,12.84,0,0,1,.3,3.18v3.4a43.66,43.66,0,0,0,.13,4.49,6.3,6.3,0,0,0,.52,1.77l.09.19h-2.49l0-.08A6.43,6.43,0,0,1,359,101a7.64,7.64,0,0,1-2,1.46,5.4,5.4,0,0,1-2.41.57M356,89.09a3.13,3.13,0,0,1,2.5,1,3.37,3.37,0,0,1,.59,2.26l0,.75-.08,0a16,16,0,0,1-3.78.9,7.82,7.82,0,0,0-2.78.82,3.92,3.92,0,0,0-1.42,1.52,4.7,4.7,0,0,0-.53,2.25,4.15,4.15,0,0,0,1.11,3,4,4,0,0,0,3,1.13,5.14,5.14,0,0,0,2.29-.54,7.84,7.84,0,0,0,2.15-1.62l.21-.22,0,.3a6.4,6.4,0,0,0,.38,1.74h1.88a7,7,0,0,1-.45-1.65,40.29,40.29,0,0,1-.14-4.53v-3.4a12.78,12.78,0,0,0-.29-3.11A3,3,0,0,0,359.32,88a5.46,5.46,0,0,0-3-.7,5.82,5.82,0,0,0-3.75,1.07,5.54,5.54,0,0,0-1.7,3.31l1.79.3a3.87,3.87,0,0,1,1.08-2.22,3.49,3.49,0,0,1,2.27-.64M355.12,101a2.7,2.7,0,0,1-1.94-.68,2.44,2.44,0,0,1-.71-1.82,2.67,2.67,0,0,1,.31-1.29,2.23,2.23,0,0,1,.87-.88,6.41,6.41,0,0,1,1.89-.53,13,13,0,0,0,3.37-1l.2-.09V95.9a7.07,7.07,0,0,1-.46,2.89,3.81,3.81,0,0,1-1.42,1.61,3.87,3.87,0,0,1-2.11.6m3.72-5.82a14.32,14.32,0,0,1-3.26.89,6,6,0,0,0-1.8.5,1.94,1.94,0,0,0-.76.77,2.39,2.39,0,0,0-.27,1.16,2.18,2.18,0,0,0,.62,1.62,2.45,2.45,0,0,0,1.75.61,3.59,3.59,0,0,0,2-.56,3.55,3.55,0,0,0,1.32-1.5,6.85,6.85,0,0,0,.44-2.77Z"/><path class="cls-3" d="M370.5,95.83l2.13-.22a6.18,6.18,0,0,0,.77,2.67,4.31,4.31,0,0,0,1.72,1.54,5.5,5.5,0,0,0,2.52.58,4.54,4.54,0,0,0,3.13-1,3.23,3.23,0,0,0,1.11-2.55,2.9,2.9,0,0,0-1.62-2.73,23.77,23.77,0,0,0-3.52-1.24,12.2,12.2,0,0,1-3.43-1.44,5,5,0,0,1-1.59-1.83,5.44,5.44,0,0,1-.57-2.52A5.54,5.54,0,0,1,372.78,83a6,6,0,0,1,4.4-1.61,7,7,0,0,1,3.32.76,5.27,5.27,0,0,1,2.21,2.15,7,7,0,0,1,.85,3.3l-2.17.2a4.47,4.47,0,0,0-1.22-3,4.06,4.06,0,0,0-2.92-1,4.33,4.33,0,0,0-2.92.86,2.78,2.78,0,0,0-1,2.21,2.57,2.57,0,0,0,.74,2,8.88,8.88,0,0,0,3.31,1.41,20.68,20.68,0,0,1,3.55,1.21,5.44,5.44,0,0,1,3.15,5.18,6.4,6.4,0,0,1-.84,3.25,5.66,5.66,0,0,1-2.27,2.23,7.35,7.35,0,0,1-3.47.77,6.79,6.79,0,0,1-5-1.9,7.26,7.26,0,0,1-1.95-5.15"/><path class="cls-3" d="M377.49,103a7,7,0,0,1-5.14-1.94,7.43,7.43,0,0,1-2-5.24v-.13l2.39-.26v.14a6.23,6.23,0,0,0,.75,2.62,4.34,4.34,0,0,0,1.67,1.49,5.37,5.37,0,0,0,2.46.56,4.45,4.45,0,0,0,3-1,3.12,3.12,0,0,0,1.07-2.45,2.93,2.93,0,0,0-.39-1.53,3,3,0,0,0-1.16-1.08A23.29,23.29,0,0,0,376.7,93a12.48,12.48,0,0,1-3.47-1.46,5,5,0,0,1-1.63-1.88A5.57,5.57,0,0,1,371,87.1a5.69,5.69,0,0,1,1.68-4.22,6.15,6.15,0,0,1,4.49-1.64,7.33,7.33,0,0,1,3.39.76,5.59,5.59,0,0,1,2.26,2.21,7.22,7.22,0,0,1,.86,3.37v.13l-2.44.22v-.14a4.32,4.32,0,0,0-1.17-2.91,4,4,0,0,0-2.83-.94,4.25,4.25,0,0,0-2.83.82,2.61,2.61,0,0,0-1,2.11,2.44,2.44,0,0,0,.69,1.86,8.82,8.82,0,0,0,3.26,1.37A23.2,23.2,0,0,1,381,91.32a5.57,5.57,0,0,1,3.22,5.31,6.56,6.56,0,0,1-.85,3.32,5.74,5.74,0,0,1-2.33,2.28,7.45,7.45,0,0,1-3.53.79M370.64,96a7.08,7.08,0,0,0,1.91,4.92,6.67,6.67,0,0,0,4.94,1.86,7.17,7.17,0,0,0,3.4-.75,5.48,5.48,0,0,0,2.22-2.18,6.35,6.35,0,0,0,.82-3.18,5.66,5.66,0,0,0-.78-3,5.55,5.55,0,0,0-2.3-2,21.37,21.37,0,0,0-3.51-1.2A9,9,0,0,1,374,88.93a2.74,2.74,0,0,1-.78-2.06,2.93,2.93,0,0,1,1.06-2.32,4.54,4.54,0,0,1,3-.89,4.25,4.25,0,0,1,3,1,4.53,4.53,0,0,1,1.24,2.95l1.9-.17a6.92,6.92,0,0,0-.82-3.11,5.18,5.18,0,0,0-2.15-2.1,6.91,6.91,0,0,0-3.26-.74,5.91,5.91,0,0,0-4.3,1.56,5.86,5.86,0,0,0-1,6.49,5,5,0,0,0,1.55,1.78,12.22,12.22,0,0,0,3.39,1.42A22.13,22.13,0,0,1,380.32,94a3.13,3.13,0,0,1,1.28,1.18,3.24,3.24,0,0,1,.42,1.67,3.4,3.4,0,0,1-1.16,2.66,4.72,4.72,0,0,1-3.22,1,5.6,5.6,0,0,1-2.58-.59,4.52,4.52,0,0,1-1.78-1.59,6.4,6.4,0,0,1-.78-2.59Z"/><path class="cls-3" d="M391.49,100.24l.29,2.26a6.28,6.28,0,0,1-1.56.22,3.16,3.16,0,0,1-1.76-.43,2.18,2.18,0,0,1-.91-1.18,11.31,11.31,0,0,1-.25-3V89.45h-1.53v-2h1.53V83.74l2.08-1.53v5.26h2.11v2h-2.11v8.81a4,4,0,0,0,.19,1.57,1,1,0,0,0,1,.51,5.09,5.09,0,0,0,.92-.1"/><path class="cls-3" d="M390.22,102.86a3.25,3.25,0,0,1-1.83-.46,2.34,2.34,0,0,1-1-1.25,11.58,11.58,0,0,1-.25-3V89.59h-1.53V87.33h1.53V83.67l2.36-1.73v5.39h2.11v2.26h-2.11v8.67a3.79,3.79,0,0,0,.17,1.51.89.89,0,0,0,.88.43,5.88,5.88,0,0,0,.9-.09l.14,0,.32,2.52-.12,0a6.48,6.48,0,0,1-1.59.23M385.9,89.32h1.53v8.8a10.81,10.81,0,0,0,.25,2.94,2,2,0,0,0,.85,1.11,4,4,0,0,0,3.1.22l-.26-2a5.5,5.5,0,0,1-.8.08,1.18,1.18,0,0,1-1.13-.59,4.25,4.25,0,0,1-.2-1.63V89.32h2.12V87.61h-2.12V82.48l-1.81,1.33v3.8H385.9Z"/><path class="cls-3" d="M392.67,95a9.11,9.11,0,0,1,1.64-5.89,5.31,5.31,0,0,1,8.27,0,8.78,8.78,0,0,1,1.66,5.73c0,2.7-.55,4.72-1.63,6a5.32,5.32,0,0,1-8.29,0A9,9,0,0,1,392.67,95m2.14,0a7.26,7.26,0,0,0,1.06,4.35,3.2,3.2,0,0,0,2.64,1.43A3.06,3.06,0,0,0,401,99.32,7.31,7.31,0,0,0,402.1,95,7.24,7.24,0,0,0,401,90.65a3.17,3.17,0,0,0-2.63-1.42,3.06,3.06,0,0,0-2.54,1.43A7.33,7.33,0,0,0,394.81,95"/><path class="cls-3" d="M398.45,103a5.27,5.27,0,0,1-4.23-2,9.17,9.17,0,0,1-1.69-6c0-2.62.56-4.63,1.67-6a5.43,5.43,0,0,1,8.48,0,8.83,8.83,0,0,1,1.69,5.81c0,2.72-.56,4.78-1.66,6.13a5.29,5.29,0,0,1-4.26,2m0-15.73a5,5,0,0,0-4,1.93,9,9,0,0,0-1.6,5.8,8.87,8.87,0,0,0,1.62,5.78,5.16,5.16,0,0,0,8.07,0c1.06-1.29,1.6-3.29,1.6-6a8.62,8.62,0,0,0-1.63-5.64,5.05,5.05,0,0,0-4-1.93m.06,13.63a3.35,3.35,0,0,1-2.75-1.48A7.45,7.45,0,0,1,394.67,95a7.52,7.52,0,0,1,1.08-4.41,3.21,3.21,0,0,1,2.65-1.49,3.32,3.32,0,0,1,2.74,1.48A7.36,7.36,0,0,1,402.23,95a7.48,7.48,0,0,1-1.08,4.42,3.23,3.23,0,0,1-2.64,1.49m-.11-11.54A3,3,0,0,0,396,90.74,7.24,7.24,0,0,0,395,95a7.26,7.26,0,0,0,1,4.27,3.07,3.07,0,0,0,2.53,1.37,3,3,0,0,0,2.42-1.39A7.23,7.23,0,0,0,402,95a7.11,7.11,0,0,0-1-4.25,3.08,3.08,0,0,0-2.52-1.38"/><path class="cls-3" d="M414.78,97l2.06.33a6.93,6.93,0,0,1-1.78,4.11,4.69,4.69,0,0,1-3.42,1.41,4.84,4.84,0,0,1-4-2q-1.57-2-1.57-5.89c0-2.61.53-4.58,1.58-5.89a5,5,0,0,1,4.06-2A4.65,4.65,0,0,1,415,88.32a5.88,5.88,0,0,1,1.68,3.57l-2,.37a4.45,4.45,0,0,0-1-2.28,2.39,2.39,0,0,0-1.77-.75,3.06,3.06,0,0,0-2.56,1.37,7.38,7.38,0,0,0-1,4.34,7.87,7.87,0,0,0,1,4.45,2.94,2.94,0,0,0,2.49,1.38,2.67,2.67,0,0,0,2-.92A5,5,0,0,0,414.78,97"/><path class="cls-3" d="M411.64,103a5,5,0,0,1-4.1-2,9.58,9.58,0,0,1-1.6-6c0-2.63.54-4.65,1.61-6a5.14,5.14,0,0,1,4.17-2A4.8,4.8,0,0,1,415,88.22a6,6,0,0,1,1.72,3.65l0,.13-2.29.42,0-.13a4.25,4.25,0,0,0-1-2.21,2.25,2.25,0,0,0-1.68-.72,3,3,0,0,0-2.45,1.32,7.31,7.31,0,0,0-1,4.26,7.87,7.87,0,0,0,.94,4.37,2.79,2.79,0,0,0,2.38,1.32,2.56,2.56,0,0,0,1.93-.87,4.93,4.93,0,0,0,1-2.77v-.14l2.33.37v.13a7.14,7.14,0,0,1-1.82,4.19,4.84,4.84,0,0,1-3.52,1.46m.08-15.73a4.86,4.86,0,0,0-4,1.91c-1,1.28-1.55,3.23-1.55,5.8a9.32,9.32,0,0,0,1.53,5.81,4.79,4.79,0,0,0,3.89,1.94,4.55,4.55,0,0,0,3.32-1.38,6.7,6.7,0,0,0,1.72-3.9l-1.78-.28a4.92,4.92,0,0,1-1.09,2.77,2.78,2.78,0,0,1-2.13,1,3.08,3.08,0,0,1-2.6-1.43,8.06,8.06,0,0,1-1-4.53,7.55,7.55,0,0,1,1-4.43,3.22,3.22,0,0,1,2.67-1.42,2.51,2.51,0,0,1,1.87.8,4.4,4.4,0,0,1,1,2.21l1.76-.32a5.65,5.65,0,0,0-1.62-3.36,4.51,4.51,0,0,0-3.13-1.15"/><polygon class="cls-3" points="418.65 102.52 418.65 81.74 420.74 81.74 420.74 93.61 425.7 87.47 428.41 87.47 423.69 93.06 428.88 102.52 426.31 102.52 422.21 94.81 420.74 96.56 420.74 102.52 418.65 102.52"/><path class="cls-3" d="M429.11,102.66h-2.88l-4-7.61-1.31,1.56v6h-2.36V81.6h2.36V93.22l4.76-5.89h3.07l-4.85,5.75Zm-2.71-.27h2.25L423.53,93l4.59-5.43h-2.35L420.6,94V81.88h-1.81v20.51h1.81V96.51l1.64-2Z"/><polygon class="cls-3" points="437.48 102.52 437.48 81.74 449.8 81.74 449.8 84.19 439.73 84.19 439.73 90.54 449.16 90.54 449.16 93 439.73 93 439.73 100.07 450.19 100.07 450.19 102.52 437.48 102.52"/><path class="cls-3" d="M450.33,102.66h-13V81.6h12.59v2.73H439.87v6.08h9.42v2.73h-9.42v6.79h10.46Zm-12.71-.27h12.44v-2.18H439.59V92.86H449V90.68h-9.43V84.06h10.07V81.88h-12Z"/><path class="cls-3" d="M451.65,102.52l4.51-7.81L452,87.47h2.61L456.5,91c.35.65.64,1.22.87,1.69.35-.63.67-1.17.95-1.64l2.07-3.57h2.49l-4.26,7.07,4.59,8h-2.57l-2.54-4.68-.66-1.26-3.25,5.94Z"/><path class="cls-3" d="M463.44,102.66h-2.88L458,97.9l-.54-1-3.17,5.79h-2.85l4.58-8-4.23-7.38h2.93l1.92,3.6c.29.54.54,1,.75,1.46.31-.53.58-1,.83-1.42l2.11-3.64h2.81l-4.34,7.21Zm-2.72-.27H463l-4.51-7.85,4.18-6.93h-2.17l-2,3.5-.94,1.64-.13.23-.12-.24c-.23-.48-.52-1-.86-1.68l-1.84-3.45h-2.3l4.08,7.1,0,.06-4.39,7.62h2.22l3.34-6.1.77,1.49Z"/><path class="cls-3" d="M473,97l2.06.33a6.93,6.93,0,0,1-1.78,4.11,4.69,4.69,0,0,1-3.42,1.41,4.88,4.88,0,0,1-4-2A9.43,9.43,0,0,1,464.3,95c0-2.61.52-4.58,1.58-5.89a5,5,0,0,1,4.06-2,4.63,4.63,0,0,1,3.22,1.19,5.78,5.78,0,0,1,1.68,3.57l-2,.37a4.45,4.45,0,0,0-1-2.28,2.39,2.39,0,0,0-1.77-.75,3.06,3.06,0,0,0-2.56,1.37,7.31,7.31,0,0,0-1,4.34,7.87,7.87,0,0,0,1,4.45,2.94,2.94,0,0,0,2.49,1.38,2.67,2.67,0,0,0,2-.92A5,5,0,0,0,473,97"/><path class="cls-3" d="M469.85,103a5,5,0,0,1-4.09-2,9.58,9.58,0,0,1-1.6-6c0-2.63.54-4.65,1.61-6a5.14,5.14,0,0,1,4.17-2,4.82,4.82,0,0,1,3.32,1.23A6,6,0,0,1,475,91.87l0,.13-2.29.42,0-.13a4.25,4.25,0,0,0-1-2.21,2.22,2.22,0,0,0-1.67-.72,3,3,0,0,0-2.45,1.32,7.31,7.31,0,0,0-1,4.26,7.79,7.79,0,0,0,.94,4.37,2.78,2.78,0,0,0,2.38,1.32,2.56,2.56,0,0,0,1.93-.87,4.93,4.93,0,0,0,1-2.77v-.14l2.33.37,0,.13a7,7,0,0,1-1.82,4.19,4.81,4.81,0,0,1-3.52,1.46m.09-15.73a4.89,4.89,0,0,0-4,1.91,9.23,9.23,0,0,0-1.55,5.8,9.32,9.32,0,0,0,1.54,5.81,4.77,4.77,0,0,0,3.88,1.94,4.59,4.59,0,0,0,3.33-1.38,6.7,6.7,0,0,0,1.72-3.9l-1.78-.28A4.92,4.92,0,0,1,472,99.94a2.78,2.78,0,0,1-2.13,1,3.07,3.07,0,0,1-2.6-1.43,8.06,8.06,0,0,1-1-4.53,7.55,7.55,0,0,1,1-4.43A3.22,3.22,0,0,1,470,89.09a2.53,2.53,0,0,1,1.87.8,4.31,4.31,0,0,1,1,2.21l1.77-.32a5.7,5.7,0,0,0-1.62-3.36,4.53,4.53,0,0,0-3.13-1.15"/><path class="cls-3" d="M476.83,102.52V81.74h2.08V89.2a5.07,5.07,0,0,1,1.67-1.55,4.09,4.09,0,0,1,2.05-.52,4,4,0,0,1,3.11,1.25c.76.84,1.14,2.37,1.14,4.6v9.54h-2.09V93a4.46,4.46,0,0,0-.69-2.8,2.32,2.32,0,0,0-1.91-.85,3,3,0,0,0-2.32,1.09,5.94,5.94,0,0,0-1,3.87v8.23Z"/><path class="cls-3" d="M487,102.66h-2.35V93a4.37,4.37,0,0,0-.67-2.72,2.18,2.18,0,0,0-1.8-.8A2.89,2.89,0,0,0,480,90.51a5.88,5.88,0,0,0-.92,3.78v8.37h-2.36V81.6h2.36v7.19a5,5,0,0,1,1.46-1.26,4.26,4.26,0,0,1,2.12-.54,4.17,4.17,0,0,1,3.21,1.3c.78.86,1.17,2.44,1.17,4.69Zm-2.08-.27h1.81V93c0-2.18-.37-3.7-1.1-4.5a3.87,3.87,0,0,0-3-1.21,4.08,4.08,0,0,0-2,.5A5.1,5.1,0,0,0,479,89.28l-.24.35V81.88H477v20.51h1.81v-8.1a6.14,6.14,0,0,1,1-4,3.13,3.13,0,0,1,2.43-1.14,2.48,2.48,0,0,1,2,.9,4.61,4.61,0,0,1,.72,2.89Z"/><path class="cls-3" d="M498.1,100.67a7.76,7.76,0,0,1-2.18,1.64,5.26,5.26,0,0,1-2.35.55,4.12,4.12,0,0,1-3.08-1.16,4.27,4.27,0,0,1-1.14-3.13,4.92,4.92,0,0,1,.53-2.31,3.93,3.93,0,0,1,1.48-1.57,7.69,7.69,0,0,1,2.83-.84,15.75,15.75,0,0,0,3.75-.9V92.3a3.29,3.29,0,0,0-.55-2.17,3,3,0,0,0-2.4-.9,3.36,3.36,0,0,0-2.18.6,4,4,0,0,0-1.07,2.27l-2.05-.34a5.69,5.69,0,0,1,1.78-3.53,5.91,5.91,0,0,1,3.83-1.1,5.46,5.46,0,0,1,3.05.73,3.17,3.17,0,0,1,1.4,1.81,13,13,0,0,1,.29,3.14v3.41a43.91,43.91,0,0,0,.13,4.5,6.76,6.76,0,0,0,.53,1.8h-2.18a6.37,6.37,0,0,1-.43-1.85m-.16-5.7a13.12,13.12,0,0,1-3.42,1,6.14,6.14,0,0,0-1.84.52,2,2,0,0,0-.82.82,2.6,2.6,0,0,0-.29,1.23,2.26,2.26,0,0,0,.67,1.72,2.53,2.53,0,0,0,1.84.64,3.67,3.67,0,0,0,2-.58,3.55,3.55,0,0,0,1.37-1.55,7,7,0,0,0,.46-2.83Z"/><path class="cls-3" d="M493.57,103a4.24,4.24,0,0,1-3.17-1.2,4.42,4.42,0,0,1-1.19-3.23,5.09,5.09,0,0,1,.55-2.38,4.19,4.19,0,0,1,1.53-1.62,7.76,7.76,0,0,1,2.88-.86,16.08,16.08,0,0,0,3.63-.85V92.3a3.11,3.11,0,0,0-.52-2.07,2.84,2.84,0,0,0-2.29-.87,3.2,3.2,0,0,0-2.09.58,3.82,3.82,0,0,0-1,2.19l0,.13-2.32-.38,0-.14a5.9,5.9,0,0,1,1.83-3.61A6,6,0,0,1,495.31,87a5.66,5.66,0,0,1,3.13.75,3.31,3.31,0,0,1,1.45,1.89,13.44,13.44,0,0,1,.29,3.18v3.4a42.49,42.49,0,0,0,.14,4.49,6.3,6.3,0,0,0,.52,1.77l.09.19h-2.49l0-.08A6.43,6.43,0,0,1,498,101a7.64,7.64,0,0,1-2,1.46,5.4,5.4,0,0,1-2.41.57M495,89.09a3.13,3.13,0,0,1,2.5,1,3.37,3.37,0,0,1,.59,2.26l0,.75-.08,0a16,16,0,0,1-3.78.9,7.82,7.82,0,0,0-2.78.82A3.92,3.92,0,0,0,490,96.32a4.7,4.7,0,0,0-.53,2.25,4.15,4.15,0,0,0,1.11,3,4,4,0,0,0,3,1.13,5.14,5.14,0,0,0,2.29-.54,7.84,7.84,0,0,0,2.15-1.62l.21-.22,0,.3a6.4,6.4,0,0,0,.38,1.74h1.88a7,7,0,0,1-.45-1.65,40.29,40.29,0,0,1-.14-4.53v-3.4a12.78,12.78,0,0,0-.29-3.11A3,3,0,0,0,498.28,88a5.46,5.46,0,0,0-3-.7,5.82,5.82,0,0,0-3.75,1.07,5.54,5.54,0,0,0-1.7,3.31l1.79.3a3.87,3.87,0,0,1,1.08-2.22,3.49,3.49,0,0,1,2.27-.64M494.08,101a2.7,2.7,0,0,1-1.94-.68,2.44,2.44,0,0,1-.71-1.82,2.67,2.67,0,0,1,.31-1.29,2.23,2.23,0,0,1,.87-.88,6.41,6.41,0,0,1,1.89-.53,13,13,0,0,0,3.37-1l.2-.09V95.9a7.07,7.07,0,0,1-.46,2.89,3.81,3.81,0,0,1-1.42,1.61,3.87,3.87,0,0,1-2.11.6m3.72-5.82a14.32,14.32,0,0,1-3.26.89,6,6,0,0,0-1.8.5,1.94,1.94,0,0,0-.76.77,2.39,2.39,0,0,0-.27,1.16,2.18,2.18,0,0,0,.62,1.62,2.45,2.45,0,0,0,1.75.61,3.59,3.59,0,0,0,2-.56,3.55,3.55,0,0,0,1.32-1.5,6.85,6.85,0,0,0,.44-2.77Z"/><path class="cls-3" d="M503.31,102.52v-15h1.88V89.6a4.84,4.84,0,0,1,1.67-1.86,4.12,4.12,0,0,1,2.25-.61,4.29,4.29,0,0,1,1.83.39,3.67,3.67,0,0,1,1.36,1,4.11,4.11,0,0,1,.78,1.64,13.72,13.72,0,0,1,.25,3.09v9.25h-2.09V93.36a7.56,7.56,0,0,0-.28-2.43,2.3,2.3,0,0,0-2.28-1.6,2.91,2.91,0,0,0-2.4,1.12,6.32,6.32,0,0,0-.89,3.84v8.23Z"/><path class="cls-3" d="M513.47,102.66h-2.36v-9.3a7.21,7.21,0,0,0-.28-2.38,2.33,2.33,0,0,0-.83-1.12,2.29,2.29,0,0,0-1.32-.4,2.76,2.76,0,0,0-2.29,1.07,6.25,6.25,0,0,0-.86,3.76v8.37h-2.36V87.33h2.16V89.1a4.74,4.74,0,0,1,1.45-1.47,4.27,4.27,0,0,1,2.33-.64,4.54,4.54,0,0,1,1.89.4,4,4,0,0,1,1.41,1.06,4.43,4.43,0,0,1,.8,1.69,14,14,0,0,1,.26,3.13Zm-2.09-.27h1.81V93.27a13.47,13.47,0,0,0-.25-3.06,3.93,3.93,0,0,0-.74-1.58,3.58,3.58,0,0,0-1.31-1,4.2,4.2,0,0,0-1.78-.37,4.07,4.07,0,0,0-2.18.59,4.77,4.77,0,0,0-1.62,1.8l-.25.47V87.61h-1.61v14.78h1.8v-8.1a6.46,6.46,0,0,1,.93-3.93,3,3,0,0,1,2.5-1.17,2.53,2.53,0,0,1,1.47.44,2.59,2.59,0,0,1,.94,1.25,7.61,7.61,0,0,1,.29,2.48Z"/><path class="cls-3" d="M516.14,103.77l2,.37a2.57,2.57,0,0,0,.85,1.8,3,3,0,0,0,2,.59,3,3,0,0,0,3.3-2.62,19.06,19.06,0,0,0,.18-3.34A4.9,4.9,0,0,1,523,102a3.64,3.64,0,0,1-1.88.49,4.47,4.47,0,0,1-3.67-1.87,9.12,9.12,0,0,1-1.67-5.77,11.27,11.27,0,0,1,.73-4.24A5.9,5.9,0,0,1,518.4,88a4.5,4.5,0,0,1,2.68-.85,3.87,3.87,0,0,1,2,.53,5,5,0,0,1,1.6,1.61v-1.8h1.93v13a15.22,15.22,0,0,1-.57,5,4.89,4.89,0,0,1-1.86,2.34,5.47,5.47,0,0,1-3.1.85,5,5,0,0,1-3.69-1.29,4.68,4.68,0,0,1-1.24-3.57m1.72-9a7.46,7.46,0,0,0,1,4.33,2.87,2.87,0,0,0,2.4,1.36,2.93,2.93,0,0,0,2.41-1.33,7.22,7.22,0,0,0,1-4.25,7.17,7.17,0,0,0-1-4.23,3,3,0,0,0-2.48-1.38,2.83,2.83,0,0,0-2.3,1.38,7.1,7.1,0,0,0-1,4.12"/><path class="cls-3" d="M521.07,108.77a5.14,5.14,0,0,1-3.78-1.33,4.81,4.81,0,0,1-1.29-3.67v-.16l2.3.41v.1a2.51,2.51,0,0,0,.81,1.72,2.85,2.85,0,0,0,1.88.56,3.23,3.23,0,0,0,2.1-.63,3.26,3.26,0,0,0,1.07-1.89,16.46,16.46,0,0,0,.18-2.9,4.83,4.83,0,0,1-1.33,1.17,3.81,3.81,0,0,1-1.95.51,4.65,4.65,0,0,1-3.78-1.92,9.36,9.36,0,0,1-1.7-5.86,11.34,11.34,0,0,1,.75-4.29,6,6,0,0,1,2-2.72,4.7,4.7,0,0,1,2.76-.88,4,4,0,0,1,2.06.56,4.77,4.77,0,0,1,1.39,1.28v-1.5h2.2v13.15a15.62,15.62,0,0,1-.57,5,5,5,0,0,1-1.91,2.4,5.68,5.68,0,0,1-3.18.88m-4.8-4.83a4.53,4.53,0,0,0,1.21,3.31,4.92,4.92,0,0,0,3.59,1.25,5.36,5.36,0,0,0,3-.84,4.65,4.65,0,0,0,1.8-2.27,15.26,15.26,0,0,0,.56-4.91V87.61h-1.65v2.12l-.26-.39A4.88,4.88,0,0,0,523,87.78a3.76,3.76,0,0,0-1.93-.51,4.37,4.37,0,0,0-2.6.82,5.73,5.73,0,0,0-1.89,2.61,11.11,11.11,0,0,0-.73,4.18,9.16,9.16,0,0,0,1.64,5.69,4.41,4.41,0,0,0,3.57,1.82,3.56,3.56,0,0,0,1.82-.48,4.83,4.83,0,0,0,1.48-1.42l.25-.36v.44a18.09,18.09,0,0,1-.19,3.37,3.19,3.19,0,0,1-3.43,2.73,3.16,3.16,0,0,1-2.06-.62,2.72,2.72,0,0,1-.89-1.79Zm5-3.38a3,3,0,0,1-2.52-1.42,7.74,7.74,0,0,1-1-4.41,7.29,7.29,0,0,1,1-4.2,3,3,0,0,1,2.41-1.44,3.16,3.16,0,0,1,2.59,1.44,7.28,7.28,0,0,1,1,4.31,7.33,7.33,0,0,1-1,4.33,3.07,3.07,0,0,1-2.52,1.39m-.1-11.2A2.71,2.71,0,0,0,519,90.69a7.08,7.08,0,0,0-1,4A7.37,7.37,0,0,0,519,99a2.76,2.76,0,0,0,2.29,1.31,2.81,2.81,0,0,0,2.3-1.28,7.12,7.12,0,0,0,1-4.17,7,7,0,0,0-1-4.14,2.88,2.88,0,0,0-2.37-1.34"/><path class="cls-3" d="M538.22,97.67l2.16.33a6.56,6.56,0,0,1-2,3.64,5.13,5.13,0,0,1-3.5,1.22,5.19,5.19,0,0,1-4.24-2,8.85,8.85,0,0,1-1.63-5.75,9.32,9.32,0,0,1,1.64-5.94,5.07,5.07,0,0,1,4.15-2.05,4.9,4.9,0,0,1,4,2A9.18,9.18,0,0,1,540.45,95l0,.68h-9.21a6.49,6.49,0,0,0,1.17,3.82,3.17,3.17,0,0,0,2.56,1.3q2.35,0,3.27-3.1m-6.87-4.12h6.89a5.82,5.82,0,0,0-.84-2.92,3,3,0,0,0-5-.23,5.1,5.1,0,0,0-1.09,3.15"/><path class="cls-3" d="M534.93,103a5.39,5.39,0,0,1-4.35-2,9.07,9.07,0,0,1-1.65-5.84,9.58,9.58,0,0,1,1.66-6,5.27,5.27,0,0,1,4.26-2.1,5.07,5.07,0,0,1,4.1,2.07A9.31,9.31,0,0,1,540.58,95v.82h-9.21a6.27,6.27,0,0,0,1.14,3.6,3.07,3.07,0,0,0,2.45,1.24c1.51,0,2.54-1,3.14-3l0-.12,2.42.37,0,.14a6.71,6.71,0,0,1-2,3.71,5.28,5.28,0,0,1-3.59,1.26m-.08-15.73a5,5,0,0,0-4,2,9.25,9.25,0,0,0-1.61,5.86,8.87,8.87,0,0,0,1.59,5.67,5.14,5.14,0,0,0,4.14,1.94,5.05,5.05,0,0,0,3.41-1.2,6.4,6.4,0,0,0,1.87-3.41l-1.89-.29c-.64,2-1.77,3.07-3.37,3.07a3.32,3.32,0,0,1-2.66-1.34,6.65,6.65,0,0,1-1.21-3.91v-.14h9.23V95a9.11,9.11,0,0,0-1.57-5.74,4.82,4.82,0,0,0-3.89-2m3.53,6.42H531.2v-.15a5.29,5.29,0,0,1,1.12-3.23,3.18,3.18,0,0,1,5.18.24,5.8,5.8,0,0,1,.86,3Zm-6.89-.28h6.6a5.47,5.47,0,0,0-.8-2.7,2.87,2.87,0,0,0-2.46-1.34,2.91,2.91,0,0,0-2.29,1.11,5,5,0,0,0-1,2.93"/></g></g></svg>